<?xml version="1.0" encoding="utf-8"?>
<!-- Generator: $$$/GeneralStr/196=Adobe Illustrator 27.6.0, SVG Export Plug-In . SVG Version: 6.00 Build 0)  -->
<svg version="1.1" xmlns="http://www.w3.org/2000/svg" xmlns:xlink="http://www.w3.org/1999/xlink" x="0px" y="0px"
	 viewBox="0 0 512 512" style="enable-background:new 0 0 512 512;" xml:space="preserve">
<g id="图层_1">
	<path d="M127.4,298.5c1.4,9.6,5,18.6,11.1,26.4c9.8,12.4,21.7,20.9,38.1,21.3c2.1,0.1,5.4,1.5,6.2-0.6c1-2.6-2.7-3.3-4.4-4.6
		c-8.9-6.8-18.5-12.9-24.7-22.4c-9.7-14.9-11.8-31-6.1-48c3.3-10.1,9.2-18.6,15.8-26.7c6.9-8.4,14.8-16,23.7-22.2
		c10.3-7.2,21.2-13.6,33.1-18.1c9.7-3.7,19.6-7,29.9-8.4c2.7-0.4,5.8,0.5,6.9,2.7c1,2.2-1.9,3.6-3.4,5.2c-0.2,0.1-0.4,0.3-0.6,0.4
		c-3.5,2.5-5.8,5.7-5.1,10.3c0.6,4.3,3.5,6.5,7.4,7.8c4.8,1.5,11.2-0.4,13.7-4.3c2.3-3.5,1.3-9.7-2.2-13.4c-1.1-1.2-2.1-2.6-3.4-3.6
		c-2.2-1.8-1-2.9,0.7-3.9c1.1-0.7,2.3-0.8,3.6-0.9c6.1-0.3,11.7,1.7,17.3,3.7c15.2,5.5,27.5,14.3,32.8,30.4c1.4,3.9,3.7,6.9,6.8,9.3
		c6.2,4.9,9.2,11.1,9.1,18.9c0,1.2-1.1,3,0.7,3.6c1.7,0.6,2.6-1.2,3.5-2.3c3.3-4.1,5.9-8.7,8.3-13.4c3.9-7.6,5.1-15.5,3.4-23.7
		c-3.1-14.7-11.6-25.5-24.7-32.8c-9.6-5.3-20.2-7.2-31.1-9.6c-2,0.2-3.5-1-5.4-0.6c-12.1,0.6-24.1-2.5-36.3-2
		c-12.3,0.4-24.2,2.5-36,5.9c-22.3,6.4-41.9,17.2-57.3,34.9c-6.1,7.1-9.8,14.9-9.5,24.5c0.1,1.9-0.1,3.9-0.5,5.9
		c-2.2,10.6-7.8,19.2-14.8,27.1C128,282,126.2,290.1,127.4,298.5L127.4,298.5z"/>
	<path d="M386.5,213.9c0.2-9.1-2.6-17.4-7-25.2c-7.8-13.8-19.2-23.3-34.8-27.3c-3.2-0.8-6.4-2.2-9.8-1.8c-0.6,0-1.3-0.3-1.6,0.5
		c-0.2,0.6,0.2,0.9,0.6,1.3c2.5,2.5,4.9,5.2,7.5,7.5c6.4,5.7,13.1,11,18.3,18.1c11.5,15.7,13.6,32.6,7.1,50.7
		c-3.2,8.9-8.6,16.4-14.6,23.7c-6.2,7.6-13.1,14.6-21,20.3c-15.9,11.5-33.6,19.5-52.6,24.5c-5,1.3-10.2,3-15.5,0.1
		c-1.3-0.8-3.2-0.5-4.9,0.7c-2.6,1.8-5.8,2.2-8.9,1.7c-7.7-1.3-15.3-3.3-22.4-6.7c-14.1-6.8-24.1-16.9-27.7-32.6
		c-0.7-3.1-2-5.8-5.1-7.7c-5.6-3.4-10.1-7.8-11.3-14.8c-0.1-0.7,0.4-2.4-1.4-2.6c-1.7-0.3-2.7,0.7-3.5,1.8
		c-8.5,10.8-12.8,23-10.3,36.9c2.4,13.9,9.5,24.9,21.7,32.3c9.1,5.5,19.6,6.4,29.8,7.6c12.4,1.4,24.9,2,37.4,3.4
		c7.8,0.9,15.6-0.1,23.4-1.5c22.2-4.1,43.6-10.4,62.4-23.4c10.1-7,18-15.8,22.8-27.3c2.6-6.4,1.6-13.3,2.7-19.9
		c1.6-10.3,6.7-18.4,13.7-25.9C385.2,224,386.5,219.1,386.5,213.9L386.5,213.9z"/>
	<path d="M330.4,343.1c1.6-1.1,3.3-1.9,5.3-2.4c7.6-1.8,15.3-3.4,22.3-7.7c1-0.5,1.7-1,2.5-1.6c11.9-7.2,20.2-17.6,25.9-30.2
		c1.5-3.4-0.3-6-4.9-8.3c-3.5-1.8-4.4,1-5.5,3.1c-5,10.2-12.3,18.4-21.4,24.9c-10.2,7.4-21.3,13.7-29.5,23.6c-1.1,1.3-2.5,1.7-4,0.6
		c-1.3-1-2-2.4-1-3.9c1.5-2.1,1.4-4.4,1.4-6.8c0-5.2-2.6-7-7.6-6.1c-8.9,1.6-17.4,5-26,7.6c-10.6,3.2-21.3,5.4-32.3,3.9
		c-9.4-1.2-18.8-3-28.4-3.9c-3.2-0.3-6.4-0.8-9.6-1.2c-6.7-0.8-13.4-2.7-20.2-0.3c-3.9,1.3-6.5,5.2-4.6,8.7c2.3,4.3,0.7,6.6-2.4,9.3
		c-4.6,4-3.9,10.1,0.9,13.9c2.9,2.3,6.3,3.5,9.6,4.3c6.1,1.5,12.3,2.3,17.3-3.6c2.4-2.7,4.9-5.4,7.9-7.8
		c9.8-7.8,20.9-11.3,33.1-11.5c10.9-0.2,21.1,3.1,29.4,10.2c9.5,8.1,19.7,11.7,31.7,6.6c7.2-3,13.7-7.1,8.7-16.5
		C328,346.2,328.6,344.4,330.4,343.1L330.4,343.1z"/>
	<path d="M324,151c2.9-2.6,3-5.6,1.4-8.4c-4.5-7.8-13.1-9.8-20.7-7.3c-5.9,2-9.3,7.4-14,11.1c-15.2,12.1-34.1,13.5-50.9,4.7
		c-5-2.7-9.4-6.2-14-9.5c-10.5-7.5-24.7-6.6-34,2.3c-1.7,1.6-3.5,3.2-2.7,5.7s2.6,3.8,5.4,4.4c4.4,1,7,2.8,3.9,8.7
		c-0.3,0.5-0.6,0.9-0.8,1.3c-1.9,3.8-0.7,5.9,3.5,6.1c12.5,0.6,24.6-2.6,36.7-4.7c13.5-2.4,27-3.6,40.8-0.2
		c6.7,1.1,13.1,2.1,19.5,3.2c5.7,0.9,11.4,1.9,17.2,2.7c3.1,0.4,6.6,0.8,8.6-2.4c1.7-2.6,1.5-5.7-0.5-8.3
		C319.5,155.4,319.4,155.2,324,151L324,151z"/>
	<path d="M209.3,393.5c0-3.4-0.9-5.7-5-6.4c-12.3-2-23.9-6.3-34.9-12c-13.1-6.7-24.5-15.8-34.8-26.6c-4-3.9-7.1-8.1-10.1-12.3
		c-6-8.5-11.4-17.4-14.9-27.3c-1.4-3.9-2.7-7.6-3.5-11.6c-1.2-5.4-2.2-5.9-10.4-6.1c-4.7-0.1-5.4,0.8-4.3,5.2
		c2.5,9.8,5.9,19.3,10.5,28.4c7.8,15.4,18,29,30.9,40.6c13,11.7,27.5,20.9,44,26.8c8.7,3.1,17.4,6.3,26.6,7.1
		C209.3,399.9,209.4,399.6,209.3,393.5z"/>
	<path d="M308.5,109.4c-1.6,3.7,1,8.9,4.8,9.9c8.5,2.2,17,4.6,24.8,8.7c19.8,10.4,37.3,23.7,50.8,41.9c7.6,10.3,13.9,21.3,17.9,33.5
		c3.1,9.4,4,10.3,11.8,10.3c3.4,0,4.5-1.4,3.5-4.7c-4.8-15.5-11.1-30.1-20.7-43.2c-5.4-7.2-10.7-14.5-17.9-20.4
		c-1.9-2-3.8-3.6-5.5-5.1c-13.3-11.8-28.2-20.9-44.9-26.9c-7-2.6-14.1-5.1-21.7-5.6C310,107.7,309.1,108,308.5,109.4L308.5,109.4z"
		/>
	<path d="M415.8,305.3c-4.1-2.9-10.2-1.3-12.6,3.5c-6.7,13.2-16.2,24.2-26.6,34.5c-7.1,7-15.2,12.8-23.4,18.5
		c-13,9-27.1,15.7-42.2,20.2c-6,1.8-6.7,2.8-5,9c0.8,2.7,1.9,3.5,4.8,2.8c12-2.9,23.3-7.4,34.1-13.2c12.4-6.6,24.3-13.8,34.5-23.5
		c5-4.8,10.3-9.4,14.7-14.7c3.9-4.7,7.9-9.5,11.2-15c4.1-5.7,7.8-11.3,10.7-17.4C416.9,308.2,417.5,306.5,415.8,305.3L415.8,305.3z"
		/>
	<path d="M108.4,201.7c5.3,1.3,7.1,0.6,9.7-4.4c6.5-12.7,14.6-24,24.7-34c7.6-7.4,15.7-14.3,24.6-20.2c8.9-6,18-11.5,27.8-15.8
		c5.4-2.4,10.9-4.3,16.6-5.8c3.9-1.1,5.3-3.9,4-8c-1.2-3.6-4-2.7-6.8-2c-6.4,1.6-12.4,4.3-18.9,6.6c-4.7,2.3-9.1,4.4-13.5,6.7
		c-12.5,6.5-24,14.7-34.7,23.9c-7,6.1-13.5,12.7-19,20.2c-6.4,8.8-13,17.5-17.1,27.8C104.5,199.7,105.4,201,108.4,201.7L108.4,201.7
		z"/>
	<path d="M272.2,239.3c-9.7-8.6-25.2-6.5-32.5,4.1c-3.3,4.7-4.2,10-2,15.6c3.8,9.9,17.8,15.7,28.9,10
		C277.8,263.3,281.2,248.9,272.2,239.3L272.2,239.3z"/>
	<path d="M41.5,238.4c-5.2-2.2-10.2-2.7-15.2-1c-9.7,3.4-16.6,14.4-9.4,24.5c4.6,6.5,13.6,10,22.1,7.5c7.2-2,12.1-7.4,12.5-14.6
		C51.8,249.1,49.7,241.8,41.5,238.4z"/>
	<path d="M142.7,209.4c3-5.5,5.8-11.1,10.3-15.6c7.6-7.7,16.3-13.8,25-20.1c3.8-2.8,7.8-5.9,10.1-10.8c-6.2-0.5-11.3,2-16.9,3.4
		c-4,2-7.7,3.9-11,6.4c-11.8,8.2-21.1,18.6-26.6,32.1c-1.4,3.4,0,5.5,4.3,7.7C141.5,214.3,141.8,211.1,142.7,209.4L142.7,209.4z"/>
	<path d="M300.1,79c4.3,2.7,9.2,3.2,14.2,0.2c5.5-2.9,7.7-7.3,7-13.1c-0.6-5.1-3.6-8.1-8.6-9.7c-7.7-2.4-16.7,2.9-18,11.1
		C293.9,72.6,296.2,76.5,300.1,79z"/>
	<path d="M220.3,432c-8,1-12.3,7.2-10.7,15.2c1.2,6.1,9.7,10.5,16.2,8.6c3.3-0.9,5.6-3,8-5.6C237.6,438.9,230.8,430.7,220.3,432z"/>
	<path d="M293.5,426.3c-5.9,0.1-10.7,5.6-10.9,12.2c1.7,5.4,5.4,8.2,10.5,9.6c6.4,1.6,14.6-5.4,13.1-11.7
		C304.5,429.3,299.8,426.2,293.5,426.3z"/>
	<path d="M227.4,82.5c3.9-1.5,7.5-3.7,7.9-8.5c0.7-9-6.1-14-15.5-11.1c-1.1,0.5-2,1-2.9,1.5c-3.8,1.9-5.7,6.4-4.5,10.4
		C214.2,81,221.4,84.9,227.4,82.5z"/>
	<path d="M310.5,241c-4.5,0.5-8.1,2.8-10.2,7s0,9.6,5.2,12.3c4.7,2.5,10.9,2.1,14.1-1.8c2.7-3.2,3.2-7,1.6-11.2
		c-0.2-1.1-0.4-1.9-1-2.8C317.7,241.3,314.1,240.6,310.5,241z"/>
	<path d="M259,281.4c-5.8,0.3-10.8,6.2-9.1,12.1c1.3,4.8,5.3,6.8,8.7,9.9c1.3,1.3,2.6,1.4,3.6,0.4c2.5-2.4,5.4-4.4,7.3-7.5
		c1.9-3,1.9-6,0.8-9.2C268.4,281.6,263.7,281.2,259,281.4z"/>
	<path d="M200.4,235.7c-4,1.4-6.7,4-7.4,8.4c-0.9,6.2,4.4,12.5,12.8,10.9c4.6-0.1,7.5-3,8.8-6.4c1.3-3.3,1.2-7.3-1.9-10.4
		C209.1,234.5,204.9,234.1,200.4,235.7L200.4,235.7z"/>
	<path d="M388.4,393.8c-1.1,0-1.8-0.1-2.5-0.1c-2.7,0.2-5.7,3.7-5.7,6.5c0,3,2.5,5.4,5.6,5.7c3.6,0.4,6.3-1,7.2-4.4
		C393.9,397.9,392.2,395.2,388.4,393.8z"/>
	<path d="M413.3,355.8c-3.1,3.4-3.6,6.6-1.6,9c2.4,2.8,5.4,3.3,8.2,1.3c3-2.1,4.1-6.1,2.4-8.8C420.6,354.7,417,354,413.3,355.8z"/>
	<path d="M442.6,316.7c-3.1,0.7-5.4,4.2-5.1,7.3c0.4,4.1,4.5,5.9,9.7,4c3.4-2,3.8-5.1,2.3-8C448.2,317.6,445.6,316.1,442.6,316.7z"
		/>
	<path d="M335.6,407.9c-1.3,0.5-2.4,0.9-3.2,1.7c-2.3,1.9-2.4,4.6-1.7,7.2c0.6,2,2.1,3.1,4.4,3.3c4.4,0.3,7.5-1.8,7.6-5.7
		C342.8,411,341.1,407.1,335.6,407.9L335.6,407.9z"/>
	<path d="M112.3,381.7c-2.2,1.7-4.2,3.3-2.8,6.8c0.1,2,1.4,2.7,2.9,3.4c3.2,1.4,5.8,0.3,7.9-2.2c1.9-2.2,2-5.1,0.2-7
		C118.4,380.5,115.4,379.2,112.3,381.7L112.3,381.7z"/>
	<path d="M61.1,293.7c-2.5,0.4-4.1,2.1-5,4.7c-0.1,4.2,2.4,6.9,5.9,6.7c4.2-0.1,6.7-2.9,6.3-6.9C67.9,295,65,293.1,61.1,293.7z"/>
	<path d="M91.9,344c-4.7-2.4-9.6,0.4-9.9,6.1c1.5,3.5,4.1,4.9,7.7,4.3c2.2-0.4,4-1.9,4.4-4C94.6,348.1,94.8,345.5,91.9,344z"/>
	<path d="M452.7,191.3c-2.7,0.1-4.6,1-5.4,3.5c-0.6,2.2-0.5,4.6,1.5,6.1c2.5,1.8,5.5,1.8,8,0.1c2-1.3,2.9-3.5,1.8-6.3
		C457.3,192,455.4,191.2,452.7,191.3L452.7,191.3z"/>
	<path d="M428.6,164.1c2.2,1.4,4.4,1.3,6.5-0.3c3.2-2.4,3.1-5.7-0.7-9.7c-1.3-0.3-2.5-0.7-3.5-0.5c-2.2,0.5-4.3,1.6-4.9,4
		C425.4,160.3,426.1,162.6,428.6,164.1z"/>
	<path d="M398.5,132c2.7-0.3,5.8-3.3,5.8-5.8c0-2.9-2.4-5-6.6-5.5c-3.6,0.6-5.8,2.5-5.5,6C392.4,129.4,396.1,132.3,398.5,132
		L398.5,132z"/>
	<path d="M359.5,104.1c3.6,0.7,6.8-1,7.3-5.7c-0.9-3.5-3.2-5.1-6.4-4.9c-2.3,0.3-4.5,1.6-5,4.3C354.7,101.3,356.3,103.5,359.5,104.1
		z"/>
	<path d="M62.1,202.1c4.1-0.3,6.8-4.5,5.2-8.7c-1-0.8-1.7-1.6-2.6-1.8c-2.6-0.5-5-0.1-6.7,2.1c-1.3,1.7-2,3.9-0.9,5.9
		C58,201.3,59.9,202.3,62.1,202.1z"/>
	<path d="M94.7,156.7c2.4-1.5,3.6-3.8,2.4-6.7c-1.3-3.1-4.1-2.1-6.7-2.4c-1,0.5-1.7,0.9-2.4,1.6c-2.3,2-2.9,4.5-0.8,6.8
		C89.3,158.2,92.2,158.2,94.7,156.7z"/>
	<path d="M170.8,102.1c2.5-2.6,2.1-5-1.6-8c-1.2-0.1-2.1-0.2-3-0.1c-2.1,0.4-3.6,1.9-4.3,3.7c-0.6,1.3-0.7,3,0.7,4.5
		C164.8,104.5,168.4,104.6,170.8,102.1L170.8,102.1z"/>
	<path d="M123.5,126.3c3,0,4.3-2.2,5-4.3c0.7-2.1-0.9-3.6-3.1-4.7c-1.8-0.6-3.3,0.2-4.6,0.7c-1.9,0.9-3.3,2.6-2.5,5.1
		C119.2,125.7,121,126.3,123.5,126.3z"/>
	<path d="M488,240.3c-5.2-2.1-10.2-2.6-15.2-1c-9.7,3.4-16.6,14.4-9.4,24.5c4.6,6.5,13.6,10,22.1,7.5c7.2-2,12.1-7.4,12.5-14.6
		C498.3,251,496.2,243.7,488,240.3z"/>
	<path d="M152.5,408.9c-1,0.5-1.7,0.9-2.4,1.6c-2.3,2-2.9,4.5-0.8,6.8c2.1,2.2,5,2.2,7.5,0.7c2.4-1.5,3.6-3.8,2.4-6.7
		C157.9,408.2,155.1,409.2,152.5,408.9z"/>
</g>
<g id="图层_2">
	<path d="M286.3,375.9c-7.3-10.5-17.8-15.4-31-14.6c-16.2,0.9-33.6,16.3-31.3,35.8c1.1,9.1,5.3,16.3,12.4,21.5
		c10.7,7.9,22.5,9,35.1,3.6c5.6-2.6,10.3-5.9,13.7-10.6C292.9,400.8,293.8,386.6,286.3,375.9L286.3,375.9z M270.1,393.2
		c-0.4,4.2-2.2,8-6.3,10.3c-4.8,2.7-9.5,2.8-14.1-0.5c-3.9-2.8-6.5-8.3-5.2-12.1c1.7-4.8,4.7-8.5,10.1-9.8c2.2-0.5,4.3-1.1,6.7,0.2
		C266.4,383.2,270.6,388.4,270.1,393.2z"/>
	<path d="M108.8,276.3c7.4-1.9,13.5-5.4,18.4-10.9c11-11.9,12.5-30.9-1.1-41.9c-8.1-6.7-17.8-8.7-27.9-7.4
		c-10.6,1.4-18.9,7.3-24.7,16.4c-5.8,9.2-6.4,19.9-0.7,29.2C80.5,274.3,93.4,279.3,108.8,276.3z M89.3,246.9
		c-0.2-4.5,1.9-7.8,5.9-9.9c1.4-0.7,2.9-1.4,4.6-2.1c5-0.6,9.1,0.3,12.6,3.7c4.9,4.8,3.3,13-1.8,17c-4.8,3.8-10.3,4.2-15.9,1.1
		C90.9,254.5,89.5,251,89.3,246.9z"/>
	<path d="M439.9,239.6c-10.4-12.2-31.1-15.9-44.9-5.6c-10.9,8.1-16,19.4-13.4,31.4c3.1,13.9,12.1,21.3,25.5,23.8
		c14.9,2.8,28-1.5,36.6-17C449.2,261.8,447.6,248.7,439.9,239.6L439.9,239.6z M416.9,271.1c-8.7,1.8-16.5-3.1-16.4-12.3
		c0.1-1.8,0.8-3.3,1.7-5.1c2.8-4.9,9.3-8.3,13.3-7.4c6.6,1.5,11,6,11.7,12.1C427.8,263,423.6,269.7,416.9,271.1L416.9,271.1z"/>
	<path d="M236.4,129.4c8.2,9.3,18.9,12.9,31.4,11.1c16.3-2.3,29.5-18.8,26.2-35.1c-2.7-13.7-14.4-22.4-26.7-23.7
		c-1.1-0.8-2.1-0.8-3.2-0.8c-10.6-0.2-19.5,3.6-26.7,11.5C227.7,103.2,226.9,118.5,236.4,129.4z M249.6,106.8
		c2.1-4.9,5.9-7.3,11.1-7.8c6.4-0.6,12.9,3.3,14.5,9.6c1.6,7.1-2.8,13.6-10.7,15.3c-5.2,1.1-9.4-0.9-12.5-4.7
		C249.1,115.7,247.6,111.5,249.6,106.8L249.6,106.8z"/>
</g>
</svg>
